<?xml version="1.0" encoding="UTF-8" standalone="no"?>
<svg
   version="1.2"
   viewBox="0 0 150 112.5"
   id="svg5"
   sodipodi:docname="Email.svg"
   width="150"
   height="112.5"
   inkscape:version="1.4.2 (f4327f4, 2025-05-13)"
   xmlns:inkscape="http://www.inkscape.org/namespaces/inkscape"
   xmlns:sodipodi="http://sodipodi.sourceforge.net/DTD/sodipodi-0.dtd"
   xmlns="http://www.w3.org/2000/svg"
   xmlns:svg="http://www.w3.org/2000/svg">
  <sodipodi:namedview
     id="namedview5"
     pagecolor="#ffffff"
     bordercolor="#000000"
     borderopacity="0.25"
     inkscape:showpageshadow="2"
     inkscape:pageopacity="0.0"
     inkscape:pagecheckerboard="0"
     inkscape:deskcolor="#d1d1d1"
     inkscape:zoom="1.0611979"
     inkscape:cx="74.444172"
     inkscape:cy="56.068712"
     inkscape:window-width="1920"
     inkscape:window-height="1017"
     inkscape:window-x="-8"
     inkscape:window-y="-8"
     inkscape:window-maximized="1"
     inkscape:current-layer="svg5" />
  <defs
     id="defs2">
    <clipPath
       id="a">
      <path
         d="m 309.75,327.75 h 150 v 112.5 h -150 z m 0,0"
         id="path1" />
    </clipPath>
    <clipPath
       id="b">
      <path
         d="m 321.75,327.75 h 126 c 3.184,0 6.234,1.266 8.484,3.516 2.25,2.25 3.516,5.3 3.516,8.484 v 88.5 c 0,3.184 -1.266,6.234 -3.516,8.484 a 11.998,11.998 0 0 1 -8.484,3.516 h -126 a 11.998,11.998 0 0 1 -8.484,-3.516 11.998,11.998 0 0 1 -3.516,-8.484 v -88.5 c 0,-3.184 1.266,-6.234 3.516,-8.484 2.25,-2.25 5.3,-3.516 8.484,-3.516 z m 0,0"
         id="path2" />
    </clipPath>
  </defs>
  <g
     clip-path="url(#a)"
     id="g4"
     transform="translate(-309.75,-327.75)">
    <g
       clip-path="url(#b)"
       id="g3">
      <path
         d="m 16,0 h 168 c 4.245,0 8.313,1.687 11.313,4.687 3,3 4.687,7.068 4.687,11.313 v 118 c 0,4.245 -1.687,8.313 -4.687,11.313 -3,3 -7.068,4.687 -11.313,4.687 H 16 A 15.997,15.997 0 0 1 4.688,145.313 C 1.688,142.313 0,138.245 0,134 V 16 C 0,11.755 1.688,7.687 4.688,4.687 7.688,1.687 11.755,0 16,0 Z m 0,0"
         style="fill:none;stroke:#1b1f23;stroke-width:20;stroke-linecap:butt;stroke-linejoin:miter;stroke-miterlimit:4;stroke-opacity:1"
         transform="matrix(0.75,0,0,0.75,309.75,327.75)"
         id="path3" />
    </g>
  </g>
  <path
     d="M 5.520812,7.8144206 76.318292,48.689364"
     style="fill:none;stroke:#1b1f23;stroke-width:7.4818;stroke-linecap:butt;stroke-linejoin:miter;stroke-miterlimit:4;stroke-opacity:1"
     id="path4" />
  <path
     d="M 72.62896,48.875389 145.12882,7.0158402"
     style="fill:none;stroke:#1b1f23;stroke-width:7.5;stroke-linecap:butt;stroke-linejoin:miter;stroke-miterlimit:4;stroke-opacity:1"
     id="path5" />
</svg>
